# File created by Blade
# Date/Time:  Wed Jan 28 15:39:58 2015
#---------------------------------------------------------
:version 1.10
:name HOM
:units
  mass 1.0
  length 1.000000
  angle deg
:documentation
     Acclaim Skeleton File
:root
   axis xyz
   order TX TY TZ RX RY RZ
   position 0.000000 0.000000 0.000000
   orientation 0 0 0
:bonedata
   begin
      id 1
      name Spine_dum
      direction 0.000000 1.000000 0.000000
      length 6.864287
      axis 0.0 0.0 0.0 xyz
   end
   begin
      id 2
      name LeftUpLeg_dum
      direction 1.000000 0.000000 0.000000
      length 4.117376
      axis 0.0 0.0 0.0 xyz
   end
   begin
      id 3
      name RightUpLeg_dum
      direction -1.000000 0.000000 0.000000
      length 4.117376
      axis 0.0 0.0 0.0 xyz
   end
   begin
      id 4
      name Spine
      direction 0.000000 1.000000 0.000000
      length 0.000000
      axis 0.0 0.0 0.0 xyz
      dof rx ry rz
   end
   begin
      id 5
      name Spine_dum1
      direction 0.000000 1.000000 0.000000
      length 15.393827
      axis 0.0 0.0 0.0 xyz
   end
   begin
      id 6
      name Spine_dum2
      direction 0.000000 1.000000 0.000000
      length 9.314826
      axis 0.0 0.0 0.0 xyz
   end
   begin
      id 7
      name Spine_dum3
      direction 0.000000 1.000000 0.000000
      length 9.314826
      axis 0.0 0.0 0.0 xyz
   end
   begin
      id 8
      name Head
      direction 0.000000 1.000000 0.000000
      length 4.527550
      axis 0.0 0.0 0.0 xyz
      dof rx ry rz
   end
   begin
      id 9
      name LeftShoulder
      direction 1.000000 0.000000 0.000000
      length 8.275398
      axis 0.0 0.0 -90.0 xyz
      dof rx ry rz
   end
   begin
      id 10
      name LeftArm
      direction 1.000000 0.000000 0.000000
      length 12.002200
      axis 0.0 0.0 -90.0 xyz
      dof rx ry rz
   end
   begin
      id 11
      name LeftForeArm
      direction 1.000000 0.000000 0.000000
      length 10.144633
      axis 0.0 0.0 -90.0 xyz
      dof ry rz rx
   end
   begin
      id 12
      name LeftHand
      direction 0.000000 0.000000 0.000000
      length 0.000000
      axis 0.0 0.0 -90.0 xyz
      dof rx ry rz
   end
   begin
      id 13
      name LeftHand_dum1
      direction 0.000000 0.000000 0.000000
      length 0.000000
      axis 0.0 0.0 -90.0 xyz
   end
   begin
      id 14
      name LeftHand_dum2
      direction 1.000000 0.000000 0.000000
      length 3.937000
      axis 0.0 0.0 -90.0 xyz
   end
   begin
      id 15
      name LeftHandThumb1
      direction 0.000000 0.000000 1.000000
      length 3.937000
      axis 0.0 0.0 -90.0 xyz
      dof rx rz ry
   end
   begin
      id 16
      name RightShoulder
      direction -1.000000 0.000000 0.000000
      length 8.275398
      axis 0.0 0.0 90.0 xyz
      dof rx ry rz
   end
   begin
      id 17
      name RightArm
      direction -1.000000 0.000000 0.000000
      length 12.002200
      axis 0.0 0.0 90.0 xyz
      dof rx ry rz
   end
   begin
      id 18
      name RightForeArm
      direction -1.000000 0.000000 0.000000
      length 10.144633
      axis 0.0 0.0 90.0 xyz
      dof ry rz rx
   end
   begin
      id 19
      name RightHand
      direction 0.000000 0.000000 0.000000
      length 0.000000
      axis 0.0 0.0 90.0 xyz
      dof rx ry rz
   end
   begin
      id 20
      name RightHand_dum1
      direction 0.000000 0.000000 0.000000
      length 0.000000
      axis 0.0 0.0 90.0 xyz
   end
   begin
      id 21
      name RightHand_dum2
      direction -1.000000 0.000000 0.000000
      length 3.937000
      axis 0.0 0.0 90.0 xyz
   end
   begin
      id 22
      name RightHandThumb1
      direction 0.000000 0.000000 1.000000
      length 3.937000
      axis 0.0 0.0 90.0 xyz
      dof rx rz ry
   end
   begin
      id 23
      name LeftUpLeg
      direction 0.000000 -1.000000 0.000000
      length 19.394322
      axis 0.0 0.0 0.0 xyz
      dof rx ry rz
   end
   begin
      id 24
      name LeftLeg
      direction 0.000000 -1.000000 0.000000
      length 17.609563
      axis 0.0 0.0 0.0 xyz
      dof rx ry rz
   end
   begin
      id 25
      name LeftFoot
      direction 0.000000 -0.258819 0.965926
      length 6.085393
      axis 15.0 0.0 0.0 xyz
      dof rx ry rz
   end
   begin
      id 26
      name LeftToeBase
      direction 0.000000 0.000000 1.000000
      length 2.952750
      axis 0.0 0.0 0.0 xyz
      dof rx ry rz
   end
   begin
      id 27
      name RightUpLeg
      direction 0.000000 -1.000000 0.000000
      length 19.394322
      axis 0.0 0.0 0.0 xyz
      dof rx ry rz
   end
   begin
      id 28
      name RightLeg
      direction 0.000000 -1.000000 0.000000
      length 17.609563
      axis 0.0 0.0 0.0 xyz
      dof rx ry rz
   end
   begin
      id 29
      name RightFoot
      direction 0.000000 -0.258819 0.965926
      length 6.085393
      axis 15.0 0.0 0.0 xyz
      dof rx ry rz
   end
   begin
      id 30
      name RightToeBase
      direction 0.000000 0.000000 1.000000
      length 2.952750
      axis 0.0 0.0 0.0 xyz
      dof rx ry rz
   end
:hierarchy
   begin
      root Spine_dum LeftUpLeg_dum RightUpLeg_dum
      Spine_dum Spine
      LeftUpLeg_dum LeftUpLeg
      RightUpLeg_dum RightUpLeg
      Spine Spine_dum1 Spine_dum2 Spine_dum3
      Spine_dum1 Head
      Spine_dum2 LeftShoulder
      Spine_dum3 RightShoulder
      LeftShoulder LeftArm
      LeftArm LeftForeArm
      LeftForeArm LeftHand
      LeftHand LeftHand_dum1 LeftHand_dum2
      LeftHand_dum1 LeftHandThumb1
      RightShoulder RightArm
      RightArm RightForeArm
      RightForeArm RightHand
      RightHand RightHand_dum1 RightHand_dum2
      RightHand_dum1 RightHandThumb1
      LeftUpLeg LeftLeg
      LeftLeg LeftFoot
      LeftFoot LeftToeBase
      RightUpLeg RightLeg
      RightLeg RightFoot
      RightFoot RightToeBase
   end

# File created by Blade
# Date/Time:  Wed Jan 28 15:40:07 2015
# Frame Rate: 120.000 fps
#------------------------------------------------------
:FULLY-SPECIFIED
:DEGREES
923
root -7.457074 40.260983 -15.323759 18.204343 -50.035538 46.951967
Spine 15.173951 -2.931039 18.583801
Head -21.365604 -30.645453 -11.373863
LeftShoulder -18.025978 15.137551 -10.152454
LeftArm 9.186594 15.017845 -85.998758
LeftForeArm -11.837337 0.000000 8.368350
LeftHand 0.362171 -0.000000 -10.487516
LeftHandThumb1 -26.253704 0.000000 33.147579
RightShoulder -13.876071 8.024224 -43.467022
RightArm 27.851008 83.656038 54.768138
RightForeArm 10.608871 -0.000000 89.551958
RightHand -9.563899 -0.000000 -38.158865
RightHandThumb1 -24.326973 -0.000000 -32.862282
LeftUpLeg -17.410029 -5.099609 17.243892
LeftLeg 151.309256 -0.000000 -0.000000
LeftFoot 15.121731 4.515337 -29.626387
LeftToeBase 8.800540 -0.000000 -0.000000
RightUpLeg -60.654393 -9.893992 -20.432096
RightLeg 24.196197 -0.000000 -0.000000
RightFoot -26.401417 -21.191202 14.372464
RightToeBase 8.797396 -0.000000 -0.000000
924
root -7.447922 40.253374 -15.322015 18.164758 -50.102075 47.041012
Spine 15.224435 -2.970307 18.586240
Head -21.572497 -30.853212 -11.085148
LeftShoulder -18.022517 15.076072 -10.155052
LeftArm 9.154529 15.016445 -86.007198
LeftForeArm -11.868749 0.000000 8.383697
LeftHand 0.345215 0.000000 -10.495888
LeftHandThumb1 -26.253704 0.000000 33.147579
RightShoulder -13.890880 8.069924 -43.597898
RightArm 26.851208 83.587765 53.473809
RightForeArm 10.673347 0.000000 89.457119
RightHand -9.683674 -0.000000 -37.924418
RightHandThumb1 -24.326973 -0.000000 -32.862282
LeftUpLeg -17.423174 -5.129416 17.222367
LeftLeg 151.326778 -0.000000 -0.000000
LeftFoot 15.099703 4.538889 -29.735424
LeftToeBase 8.811986 -0.000000 -0.000000
RightUpLeg -60.763365 -9.858111 -20.513879
RightLeg 24.302983 -0.000000 -0.000000
RightFoot -26.450733 -21.214597 14.367786
RightToeBase 8.774421 -0.000000 -0.000000
925
root -7.436365 40.245803 -15.322565 18.160272 -50.172646 47.148317
Spine 15.226655 -2.944041 18.569838
Head -21.699151 -30.929181 -10.874819
LeftShoulder -18.048687 15.147024 -10.168758
LeftArm 9.292496 15.120106 -85.962789
LeftForeArm -11.922638 -0.000000 8.369769
LeftHand 0.312055 -0.000000 -10.440915
LeftHandThumb1 -26.253704 0.000000 33.147579
RightShoulder -13.978406 8.057415 -43.680645
RightArm 26.193000 83.464088 52.465792
RightForeArm 10.716227 -0.000000 89.355263
RightHand -9.771931 -0.000000 -37.752122
RightHandThumb1 -24.326973 -0.000000 -32.862282
LeftUpLeg -17.487294 -5.158520 17.203867
LeftLeg 151.345995 -0.000000 -0.000000
LeftFoot 15.092280 4.535890 -29.910352
LeftToeBase 8.852274 -0.000000 -0.000000
RightUpLeg -60.936424 -9.841674 -20.596799
RightLeg 24.430279 -0.000000 -0.000000
RightFoot -26.503567 -21.226394 14.400935
RightToeBase 8.825767 -0.000000 -0.000000
926
root -7.423470 40.237970 -15.325394 18.165781 -50.242541 47.242386
Spine 15.229036 -2.933235 18.535827
Head -21.751111 -30.810780 -10.827442
LeftShoulder -18.026871 15.058861 -10.111186
LeftArm 9.268379 15.310224 -85.950068
LeftForeArm -12.150715 -0.000000 8.297623
LeftHand 0.381151 -0.000000 -10.386118
LeftHandThumb1 -26.253704 0.000000 33.147579
RightShoulder -14.027078 8.143870 -43.775068
RightArm 24.500101 83.276978 50.440103
RightForeArm 10.802611 -0.000000 89.236612
RightHand -9.782958 -0.000000 -37.618826
RightHandThumb1 -24.326973 -0.000000 -32.862282
LeftUpLeg -17.551784 -5.193604 17.199953
LeftLeg 151.374065 -0.000000 -0.000000
LeftFoot 15.079370 4.467557 -29.814632
LeftToeBase 8.743739 -0.000000 -0.000000
RightUpLeg -61.109364 -9.817141 -20.682905
RightLeg 24.553698 -0.000000 -0.000000
RightFoot -26.570222 -21.246803 14.413754
RightToeBase 8.872834 -0.000000 -0.000000
927
root -7.413069 40.231009 -15.326206 18.174819 -50.307851 47.310927
Spine 15.246167 -2.930607 18.538757
Head -21.817737 -30.779903 -10.738264
LeftShoulder -18.052689 14.991583 -10.076540
LeftArm 9.238710 15.386152 -85.971319
LeftForeArm -12.096392 -0.000000 8.304582
LeftHand 0.412451 0.000000 -10.306510
LeftHandThumb1 -26.253704 0.000000 33.147579
RightShoulder -14.070398 8.231429 -43.883418
RightArm 22.781011 83.057942 48.379134
RightForeArm 10.962729 -0.000000 89.136353
RightHand -9.759036 0.000000 -37.700673
RightHandThumb1 -24.326973 -0.000000 -32.862282
LeftUpLeg -17.596852 -5.182758 17.182326
LeftLeg 151.398773 -0.000000 -0.000000
LeftFoot 15.013361 4.504075 -29.661476
LeftToeBase 8.764989 -0.000000 -0.000000
RightUpLeg -61.249914 -9.800961 -20.734552
RightLeg 24.645342 -0.000000 -0.000000
RightFoot -26.604137 -21.243305 14.425480
RightToeBase 8.860330 -0.000000 -0.000000
928
root -7.403006 40.223172 -15.327647 18.198806 -50.370318 47.358373
Spine 15.209216 -2.864451 18.594234
Head -21.698857 -30.768957 -10.833303
LeftShoulder -17.981254 15.034623 -10.058139
LeftArm 9.268475 15.436216 -85.981612
LeftForeArm -12.030007 0.000000 8.300982
LeftHand 0.441934 -0.000000 -10.293503
LeftHandThumb1 -26.253704 0.000000 33.147579
RightShoulder -14.082538 8.122017 -44.022894
RightArm 21.537432 82.882859 46.861848
RightForeArm 11.219053 0.000000 89.114772
RightHand -9.549672 -0.000000 -38.594643
RightHandThumb1 -24.326973 -0.000000 -32.862282
LeftUpLeg -17.630688 -5.178051 17.187168
LeftLeg 151.417912 -0.000000 -0.000000
LeftFoot 14.995209 4.531663 -29.626196
LeftToeBase 8.754703 -0.000000 -0.000000
RightUpLeg -61.394284 -9.784352 -20.768998
RightLeg 24.749986 -0.000000 -0.000000
RightFoot -26.662317 -21.226671 14.464986
RightToeBase 8.876316 -0.000000 -0.000000
929
root -7.392699 40.216013 -15.328348 18.210697 -50.431746 47.427279
Spine 15.202853 -2.852223 18.602428
Head -21.754875 -30.756371 -10.775167
LeftShoulder -17.995299 14.975850 -10.048883
LeftArm 9.191943 15.401719 -86.005312
LeftForeArm -11.873401 -0.000000 8.394232
LeftHand 0.381679 -0.000000 -10.274120
LeftHandThumb1 -26.253704 0.000000 33.147579
RightShoulder -14.104769 8.071631 -44.157228
RightArm 20.452808 82.692651 45.526531
RightForeArm 11.439794 0.000000 89.092471
RightHand -9.361256 -0.000000 -39.420026
RightHandThumb1 -24.326973 -0.000000 -32.862282
LeftUpLeg -17.680899 -5.161778 17.164990
LeftLeg 151.419904 -0.000000 -0.000000
LeftFoot 15.049711 4.601910 -29.526655
LeftToeBase 8.764476 -0.000000 -0.000000
RightUpLeg -61.544477 -9.791545 -20.802552
RightLeg 24.858037 -0.000000 -0.000000
RightFoot -26.705562 -21.184707 14.463727
RightToeBase 8.914058 -0.000000 -0.000000
930
root -7.384297 40.210709 -15.329949 18.217044 -50.478649 47.500993
Spine 15.209887 -2.849895 18.605702
Head -21.869826 -30.778044 -10.679582
LeftShoulder -17.989554 14.979234 -10.088260
LeftArm 9.281971 15.571225 -85.938411
LeftForeArm -12.122090 -0.000000 8.285434
LeftHand 0.576939 -0.000000 -10.189450
LeftHandThumb1 -26.253704 0.000000 33.147579
RightShoulder -14.139407 8.059314 -44.295824
RightArm 19.271092 82.504349 44.105304
RightForeArm 11.603147 -0.000000 89.045863
RightHand -9.232710 -0.000000 -39.855293
RightHandThumb1 -24.326973 -0.000000 -32.862282
LeftUpLeg -17.728411 -5.171083 17.155352
LeftLeg 151.438680 -0.000000 -0.000000
LeftFoot 15.052190 4.636436 -29.477824
LeftToeBase 8.757329 -0.000000 -0.000000
RightUpLeg -61.678099 -9.808305 -20.836433
RightLeg 24.952663 -0.000000 -0.000000
RightFoot -26.792215 -21.115952 14.573117
RightToeBase 9.419423 -0.000000 -0.000000
931
root -7.374142 40.207013 -15.338450 18.154643 -50.452535 47.708836
Spine 15.146796 -2.889537 18.496600
Head -21.953972 -30.743203 -10.519739
LeftShoulder -17.973711 14.986303 -10.017382
LeftArm 9.312087 15.554760 -85.939317
LeftForeArm -12.075930 0.000000 8.296926
LeftHand 0.527529 -0.000000 -10.246513
LeftHandThumb1 -26.253704 0.000000 33.147579
RightShoulder -14.222615 8.036374 -44.377293
RightArm 19.017788 82.423852 43.583567
RightForeArm 11.459237 -0.000000 88.959087
RightHand -9.466287 -0.000000 -38.522147
RightHandThumb1 -24.326973 -0.000000 -32.862282
LeftUpLeg -17.873794 -5.274187 17.109375
LeftLeg 151.489844 -0.000000 -0.000000
LeftFoot 15.062905 4.618616 -29.432978
LeftToeBase 8.680387 -0.000000 -0.000000
RightUpLeg -61.835089 -9.929122 -20.921097
RightLeg 25.074780 -0.000000 -0.000000
RightFoot -26.805029 -21.127029 14.443192
RightToeBase 9.032685 -0.000000 -0.000000
932
root -7.362728 40.202781 -15.340154 18.103335 -50.485040 47.894181
Spine 15.106476 -2.947704 18.379582
Head -22.075631 -30.644452 -10.372094
LeftShoulder -18.122839 14.980878 -9.999045
LeftArm 9.384311 15.653764 -85.913675
LeftForeArm -12.063921 0.000000 8.287576
LeftHand 0.471442 0.000000 -10.263100
LeftHandThumb1 -26.253704 0.000000 33.147579
RightShoulder -14.254521 8.149820 -44.463852
RightArm 18.295865 82.253143 42.553317
RightForeArm 11.318001 0.000000 88.853039
RightHand -9.886654 0.000000 -37.348511
RightHandThumb1 -24.326973 -0.000000 -32.862282
LeftUpLeg -17.963053 -5.411243 17.071771
LeftLeg 151.496036 -0.000000 -0.000000
LeftFoot 15.303230 4.324733 -29.177429
LeftToeBase 8.461433 -0.000000 -0.000000
RightUpLeg -62.010006 -10.035649 -20.972238
RightLeg 25.195638 -0.000000 -0.000000
RightFoot -26.845371 -21.018319 14.433517
RightToeBase 9.046822 -0.000000 -0.000000
933
root -7.357052 40.197224 -15.341739 18.151539 -50.506666 47.904035
Spine 15.100676 -2.909180 18.441317
Head -22.162082 -30.693355 -10.306203
LeftShoulder -18.098974 14.975393 -10.008875
LeftArm 9.392787 15.626834 -85.912253
LeftForeArm -11.859568 -0.000000 8.325868
LeftHand 0.330266 -0.000000 -10.302763
LeftHandThumb1 -26.253704 0.000000 33.147579
RightShoulder -14.307351 8.221912 -44.623863
RightArm 17.053454 82.046274 41.051809
RightForeArm 11.346091 -0.000000 88.778728
RightHand -10.001161 -0.000000 -37.129718
RightHandThumb1 -24.326973 -0.000000 -32.862282
LeftUpLeg -18.013031 -5.413807 17.105934
LeftLeg 151.495742 -0.000000 -0.000000
LeftFoot 15.419173 4.353259 -29.107322
LeftToeBase 8.375786 -0.000000 -0.000000
RightUpLeg -62.121651 -10.084419 -20.925954
RightLeg 25.266010 -0.000000 -0.000000
RightFoot -26.870426 -20.944991 14.425235
RightToeBase 9.079821 -0.000000 -0.000000
